<?xml version="1.0" encoding="UTF-8" standalone="no"?>
<!-- Created with Inkscape (http://www.inkscape.org/) -->

<svg
   xmlns:dc="http://purl.org/dc/elements/1.1/"
   xmlns:cc="http://creativecommons.org/ns#"
   xmlns:rdf="http://www.w3.org/1999/02/22-rdf-syntax-ns#"
   xmlns:svg="http://www.w3.org/2000/svg"
   xmlns="http://www.w3.org/2000/svg"
   xmlns:sodipodi="http://sodipodi.sourceforge.net/DTD/sodipodi-0.dtd"
   xmlns:inkscape="http://www.inkscape.org/namespaces/inkscape"
   width="264.58334mm"
   height="88.099838mm"
   viewBox="0 0 264.58334 88.099838"
   version="1.1"
   id="svg1581"
   inkscape:version="0.92.4 (5da689c313, 2019-01-14)"
   sodipodi:docname="logo-agped.svg">
  <defs
     id="defs1575" />
  <sodipodi:namedview
     id="base"
     pagecolor="#ffffff"
     bordercolor="#666666"
     borderopacity="1.0"
     inkscape:pageopacity="0.0"
     inkscape:pageshadow="2"
     inkscape:zoom="0.35"
     inkscape:cx="-455.71428"
     inkscape:cy="643.63077"
     inkscape:document-units="mm"
     inkscape:current-layer="layer1"
     showgrid="false"
     fit-margin-top="0"
     fit-margin-left="0"
     fit-margin-right="0"
     fit-margin-bottom="0"
     inkscape:window-width="1920"
     inkscape:window-height="1057"
     inkscape:window-x="-8"
     inkscape:window-y="-8"
     inkscape:window-maximized="1" />
  <metadata
     id="metadata1578">
    <rdf:RDF>
      <cc:Work
         rdf:about="">
        <dc:format>image/svg+xml</dc:format>
        <dc:type
           rdf:resource="http://purl.org/dc/dcmitype/StillImage" />
        <dc:title></dc:title>
      </cc:Work>
    </rdf:RDF>
  </metadata>
  <g
     inkscape:label="Camada 1"
     inkscape:groupmode="layer"
     id="layer1"
     transform="translate(-86.934523,-231.02746)">
    <g
       id="g1543"
       transform="matrix(0.37811091,0,0,0.37811091,-81.797245,490.78966)">
      <path
         style="fill:#06a554;fill-opacity:1"
         d="M 697.68709,-456.80472 695,-459.60944 v -111.00819 -111.00819 l 2.80472,-2.68709 2.80472,-2.68709 h 220.00819 220.00817 l 2.6871,2.80472 2.6871,2.80472 V -570.5 -459.60944 l -2.6871,2.80472 -2.6871,2.80472 H 920.5 700.37418 Z m -244.2719,-19.59575 c -1.69665,-0.75024 -4.09442,-2.64757 -5.32838,-4.2163 -1.8614,-2.36639 -2.13214,-3.5953 -1.58939,-7.21458 0.35979,-2.39929 0.82124,-6.23127 1.02543,-8.5155 0.20419,-2.28423 1.4811,-11.12815 2.83759,-19.65315 1.35648,-8.525 3.88201,-24.95 5.61228,-36.5 1.73027,-11.55 4.31074,-27.975 5.73437,-36.5 1.42362,-8.525 2.70975,-17.525 2.85805,-20 0.14831,-2.475 1.44956,-10.96521 2.89168,-18.86714 1.44212,-7.90193 2.78154,-16.90193 2.97649,-20 0.58429,-9.28521 2.21729,-13.69924 6.31888,-17.08012 L 480.45569,-668 h 18.71639 c 18.08687,0 18.8063,0.0773 21.38953,2.29934 3.00095,2.5813 4.27093,7.23839 9.91257,36.34977 1.82787,9.43202 3.8189,18.65702 4.42452,20.5 0.60561,1.84299 2.23939,9.87589 3.63062,17.85089 1.39123,7.975 2.99021,15.85 3.55328,17.5 0.56307,1.65 2.35527,10.425 3.98266,19.5 1.6274,9.075 3.3723,17.4 3.87755,18.5 0.50526,1.1 2.32223,9.83396 4.03772,19.4088 1.7155,9.57485 3.48497,18.12485 3.93218,19 0.4472,0.87516 1.11155,3.54404 1.47634,5.93085 0.82899,5.42406 -2.07257,10.71234 -7.0094,12.77508 -3.7989,1.58728 -18.94578,1.8963 -19.86726,0.40532 -0.3331,-0.53897 -1.27196,-4.92647 -2.08635,-9.75 -0.81439,-4.82353 -1.88654,-9.67005 -2.38255,-10.77005 -0.49602,-1.1 -2.07871,-9.2 -3.51708,-18 -1.43838,-8.8 -3.03173,-16.9 -3.54078,-18 -0.50904,-1.1 -2.09095,-8.975 -3.51534,-17.5 -1.4244,-8.525 -3.20912,-17.75 -3.96605,-20.5 -0.75694,-2.75 -2.55172,-11.975 -3.9884,-20.5 -1.43668,-8.525 -3.00511,-16.4 -3.4854,-17.5 -0.48029,-1.1 -1.92112,-8.075 -3.20184,-15.5 -2.18148,-12.6471 -2.47804,-13.52114 -4.69394,-13.83467 -1.30093,-0.18406 -2.7786,0.0786 -3.28371,0.58372 -0.98184,0.98184 -5.68732,27.40235 -5.47673,30.75095 0.0692,1.1 -1.08978,9.875 -2.57547,19.5 -1.48569,9.625 -3.85665,25.825 -5.26879,36 -5.30038,38.19106 -7.64885,54.83136 -9.31469,66 l -1.71527,11.5 -7,0.2318 c -4.23312,0.14018 -8.21933,-0.30737 -10.08481,-1.13227 z m 154.84936,-0.14112 c -15.97239,-4.30156 -25.95214,-14.36478 -29.21407,-29.45841 -0.86677,-4.01073 -1.10222,-22.28814 -0.86955,-67.5 l 0.31907,-62 2.30375,-5.70163 c 4.57369,-11.31957 15.52164,-20.01331 29.28932,-23.25859 8.21965,-1.93751 25.55276,-1.94733 33.73188,-0.0191 13.83477,3.26153 23.70977,10.85278 28.91886,22.23093 2.10062,4.58836 2.69163,7.65992 3.05772,15.89132 0.6042,13.5852 0.15912,15.04461 -5.32856,17.47207 -3.45065,1.52639 -6.19844,1.90376 -12.21269,1.67727 L 650.5,-607.5 l -0.54084,-13 c -0.59224,-14.23518 -1.57246,-17.31394 -6.9543,-21.84245 -7.47609,-6.29072 -23.20289,-6.22307 -30.36,0.13059 -1.06058,0.94152 -2.98515,3.96186 -4.27683,6.71186 l -2.34849,5 -0.004,59.5 c -0.003,37.87448 0.3712,60.85167 1.02866,63.21895 2.40523,8.66043 10.14974,13.73713 20.95599,13.73713 10.78356,0 18.4926,-5.04239 21.02339,-13.75115 0.6732,-2.31658 0.96423,-12.32371 0.77664,-26.70493 l -0.30022,-23 -7.5,-0.5 -7.5,-0.5 -0.30122,-5.22004 c -0.37328,-6.46883 0.78363,-8.72018 5.79482,-11.27669 3.22277,-1.64414 5.8942,-2.00327 14.90146,-2.00327 11.58706,0 15.19368,0.81121 18.85494,4.24093 2.24033,2.09864 2.25,2.24196 2.25,33.34429 0,34.79627 -0.53641,38.52027 -6.87562,47.73399 -5.12324,7.44639 -14.611,13.36831 -24.9236,15.55641 -7.4039,1.57095 -29.5067,1.31434 -35.93623,-0.41721 z"
         id="path1525"
         inkscape:connector-curvature="0" />
      <path
         style="fill:#ffffff"
         d="M 726.13497,-478.49906 723,-482.06959 v -88.44943 -88.44943 l 2.92065,-3.26577 2.92064,-3.26578 26.82936,0.0362 c 25.42181,0.0344 27.12549,0.1541 32.47417,2.2825 11.05224,4.39801 17.67571,11.0278 22.01544,22.03642 2.02237,5.13017 2.26186,7.76904 2.62669,28.94342 0.55057,31.95419 -1.08465,40.14471 -9.9309,49.74176 -8.7552,9.49825 -15.19965,11.60745 -37.85605,12.38984 l -16.5,0.5698 -0.5,37 -0.5,37 -9.11503,0.28574 -9.11503,0.28574 -3.13497,-3.57054 z m 50.4064,-92.3806 c 4.93188,-2.24025 9.03308,-6.92692 10.41462,-11.90139 1.34278,-4.83487 1.34278,-45.60303 0,-50.43789 -1.4318,-5.15543 -5.24384,-9.3443 -10.23443,-11.24613 -3.2222,-1.22793 -7.06228,-1.54085 -16.22156,-1.32185 l -12,0.28692 -0.27988,30.5 c -0.15394,16.775 -0.0349,31.50425 0.26445,32.73166 0.84277,3.45524 6.56822,9.38693 11.00685,11.40336 5.12535,2.32839 11.90453,2.32256 17.04995,-0.0147 z M 881.5,-476.87239 c -16.32239,-4.70603 -31.92004,-17.10686 -38.6049,-30.69264 -3.24078,-6.5863 -3.39455,-7.40069 -3.38301,-17.91744 0.0114,-10.35275 0.20471,-11.40973 3.2043,-17.51753 5.31034,-10.81298 17.79466,-24.02579 29.51522,-31.23753 6.72149,-4.13577 6.43092,-5.8608 -2.78328,-16.52359 -4.30519,-4.98201 -9.14159,-11.94336 -11.25,-16.19284 -3.4856,-7.02521 -3.69833,-8.00307 -3.69833,-17 0,-8.55413 0.30174,-10.14153 2.90388,-15.27698 4.40807,-8.69956 12.07065,-15.91628 22.26113,-20.96587 l 8.68421,-4.30319 h 12.16932 12.16932 l 9.5452,4.73848 c 7.35817,3.65279 10.75336,6.05859 14.81816,10.5 7.4694,8.16147 9.43314,12.91263 9.42739,22.80902 -0.004,7.05389 -0.40196,8.84418 -3.2224,14.5 -3.87965,7.77988 -11.21707,16.4975 -21.04492,25.00356 -4.00879,3.46963 -7.15879,6.85345 -7,7.5196 0.41414,1.73737 37.0421,40.42934 38.27266,40.42934 0.56443,0 2.07975,-2.71694 3.36738,-6.03765 4.2395,-10.93334 8.90205,-14.64105 19.67687,-15.64721 L 983,-561.28921 v 2.89461 c 0,4.9997 -4.8082,21.08956 -7.96846,26.68919 -1.66596,2.95192 -3.02902,6.04195 -3.02902,6.86675 0,0.82479 2.1375,3.03195 4.74998,4.9048 7.6563,5.48863 12.4603,10.2059 13.9029,13.65174 2.6827,6.40808 0.7994,18.40384 -3.1257,19.91006 -2.3725,0.9104 -6.8481,-1.31513 -18.75952,-9.32826 -5.96751,-4.01482 -11.01624,-7.29968 -11.2189,-7.29968 -0.20267,0 -2.99644,2.52924 -6.20838,5.62054 -11.37954,10.95211 -22.58947,17.66271 -34.8,20.83233 -8.23346,2.13725 -27.10656,1.96206 -35.0399,-0.32526 z m 28.55782,-19.41489 C 922.30755,-500.46337 939,-512.84759 939,-517.75964 939,-520.91822 895.59415,-565 892.48401,-565 c -3.31045,0 -13.706,8.05535 -18.37337,14.23723 -5.81826,7.70623 -8.35981,14.10114 -8.89606,22.38373 -0.6296,9.72467 1.4973,15.80845 8.02282,22.94841 9.90103,10.8333 22.60769,13.98866 36.82042,9.14335 z m 6.06304,-109.51714 c 8.27343,-10.2764 10.85694,-15.97976 10.86937,-23.99524 0.005,-3.48167 -0.61871,-7.50759 -1.39522,-9 -5.50081,-10.57239 -22.62851,-14.72037 -34.71374,-8.40697 -17.21068,8.99096 -15.33917,27.90465 4.859,49.10542 l 6.09619,6.3988 4.04438,-3.20321 c 2.22441,-1.76177 6.83242,-6.66623 10.24002,-10.8988 z M 1024.5,-476.16698 c -1.1,-0.60839 -3.0125,-2.02314 -4.25,-3.1439 l -2.25,-2.03775 v -88.92447 -88.92448 l 3.0716,-2.86934 c 1.6894,-1.57813 4.5459,-3.14589 6.3477,-3.48392 1.8018,-0.33802 16.0571,-0.43792 31.6784,-0.222 25.8248,0.35696 28.996,0.58917 34.9447,2.55878 12.491,4.13575 20.4793,11.4542 25.1722,23.06152 L 1121.5,-634.5 v 64.5 64.5 l -2.4125,6 c -3.3624,8.36248 -12.4376,17.37167 -20.5539,20.40443 -3.2815,1.22617 -8.1804,2.64929 -10.8865,3.16249 -7.1185,1.35001 -60.6417,1.15176 -63.1471,-0.2339 z m 55.5444,-18.82882 c 1.9494,-0.54156 4.9641,-2.45155 6.6993,-4.24442 6.4415,-6.65551 6.2563,-4.54632 6.2563,-71.25978 0,-65.99304 0.1091,-64.6433 -5.7145,-70.72327 -4.4707,-4.66752 -10.1729,-5.86833 -26.3791,-5.55514 L 1046.5,-646.5 l -0.2936,67 c -0.2024,46.16889 0.045,68.17108 0.7951,70.76658 1.4259,4.93301 6.4785,10.59179 11.4899,12.86844 4.4957,2.04234 15.7031,2.49431 21.553,0.86918 z"
         id="path1523"
         inkscape:connector-curvature="0" />
    </g>
  </g>
</svg>
