<?xml version="1.0" encoding="UTF-8" standalone="no"?>
<svg xmlns="http://www.w3.org/2000/svg" width="21.33333" height="21.333334" viewBox="0 0 15.999997 16" preserveAspectRatio="xMidYMid meet">
  <path
     d="M 8.00066,3.672846e-4 C 6.5036913,0.00893834 5.1438492,0.36034527 3.9154205,1.0631595 A 7.7533847,7.7538117 0 0 0 1.0014733,3.9372692 8.1019156,8.1023619 0 0 0 0.0015898,7.9998779 c 0.00857043,1.4913376 0.32281926,2.8741111 1.0055971,4.0940361 a 7.5734057,7.5738224 0 0 0 2.7911043,2.871253 7.5705484,7.5709658 0 0 0 3.9166879,1.034222 c 1.1855765,0 2.4197189,-0.245699 3.4795949,-0.777095 a 7.1220296,7.1224216 0 0 0 2.519708,-2.222721 v 1.71418 c 0,0.728528 0.451376,1.154215 1.142724,1.142788 0.714203,-0.01143 1.142724,-0.448544 1.142724,-1.142788 V 7.9998779 A 8.0562065,8.05665 0 0 0 14.936996,3.9344122 7.6362551,7.6366756 0 0 0 12.057332,1.0631595 8.1076294,8.1080757 0 0 0 8.00066,3.672846e-4 Z m 0,1.9998778154 c 1.0227384,0.00571 2.076902,0.2856968 2.962513,0.8170929 0.879898,0.5228248 1.628382,1.2056402 2.074044,2.1541537 0.734201,1.5570477 0.751342,3.0569559 0.677065,4.7425674 C 13.500021,9.2912278 13.085783,8.8912522 12.737253,8.5712718 11.885923,7.7884623 10.537508,7.2370674 8.5720223,6.8942313 7.1236192,6.642818 6.0323175,6.3599781 5.4980938,5.9171482 4.3410854,4.9600638 4.4782124,3.4030161 5.5523734,2.6430629 6.1580173,2.2145177 7.1579013,1.9945311 8.00066,2.0002451 Z M 2.7155598,5.3571824 c 0.1885496,0.6685306 0.5713622,1.2684938 1.1855766,1.785605 0.8941819,0.7570967 2.2997329,1.285636 4.0995236,1.5884745 1.3941241,0.2342715 2.376866,0.548538 2.999651,1.0342226 1.276995,0.9942255 1.142725,2.6912645 -0.03714,3.4483605 A 5.4107999,5.411098 0 0 1 8.00066,13.999511 5.9593076,5.9596358 0 0 1 5.0067224,13.213845 5.5650677,5.5653743 0 0 1 2.9069662,11.088262 6.3421203,6.3424696 0 0 1 2.1441977,7.9998779 C 2.1499095,7.0285087 2.3441744,6.1571334 2.7155598,5.3571824 Z"
     style="stroke-width: 0.28568894;" />
  <ellipse
     cx="14.857007"
     cy="1.1431544"
     rx="1.1427244"
     ry="1.1427873" />
</svg>
