<?xml version="1.0" encoding="UTF-8" standalone="no"?>
<!-- Created with Inkscape (http://www.inkscape.org/) -->

<svg
   xmlns:dc="http://purl.org/dc/elements/1.1/"
   xmlns:cc="http://creativecommons.org/ns#"
   xmlns:rdf="http://www.w3.org/1999/02/22-rdf-syntax-ns#"
   xmlns:svg="http://www.w3.org/2000/svg"
   xmlns="http://www.w3.org/2000/svg"
   xmlns:sodipodi="http://sodipodi.sourceforge.net/DTD/sodipodi-0.dtd"
   xmlns:inkscape="http://www.inkscape.org/namespaces/inkscape"
   width="264.58347mm"
   height="28.903568mm"
   viewBox="0 0 264.58347 28.903568"
   version="1.1"
   id="svg2175"
   inkscape:version="0.92.4 (5da689c313, 2019-01-14)"
   sodipodi:docname="logo-teams.svg">
  <defs
     id="defs2169" />
  <sodipodi:namedview
     id="base"
     pagecolor="#ffffff"
     bordercolor="#666666"
     borderopacity="1.0"
     inkscape:pageopacity="0.0"
     inkscape:pageshadow="2"
     inkscape:zoom="0.35"
     inkscape:cx="-395.71404"
     inkscape:cy="6.0493741"
     inkscape:document-units="mm"
     inkscape:current-layer="layer1"
     showgrid="false"
     fit-margin-top="0"
     fit-margin-left="0"
     fit-margin-right="0"
     fit-margin-bottom="0"
     inkscape:window-width="1920"
     inkscape:window-height="1057"
     inkscape:window-x="-8"
     inkscape:window-y="-8"
     inkscape:window-maximized="1" />
  <metadata
     id="metadata2172">
    <rdf:RDF>
      <cc:Work
         rdf:about="">
        <dc:format>image/svg+xml</dc:format>
        <dc:type
           rdf:resource="http://purl.org/dc/dcmitype/StillImage" />
        <dc:title></dc:title>
      </cc:Work>
    </rdf:RDF>
  </metadata>
  <g
     inkscape:label="Camada 1"
     inkscape:groupmode="layer"
     id="layer1"
     transform="translate(-71.059458,-121.53033)">
    <path
       inkscape:connector-curvature="0"
       id="path863"
       d="m 76.533387,150.00026 c -2.243062,-0.77815 -3.945062,-2.34307 -4.97337,-4.57284 -0.499818,-1.0838 -0.500559,-1.10223 -0.500559,-12.4461 v -11.36069 l 1.413786,-0.0666 c 0.981793,-0.0462 1.469446,0.0212 1.595943,0.22059 0.100185,0.15795 0.183677,5.13047 0.185534,11.05002 0.0032,10.15396 0.02719,10.80913 0.424366,11.58128 0.541565,1.05287 1.460625,1.9189 2.49482,2.35091 0.680521,0.28427 1.976199,0.34319 7.610555,0.34599 3.734725,0.002 6.919641,0.0853 7.077587,0.18552 0.199434,0.12649 0.266838,0.61416 0.220598,1.59595 l -0.06658,1.41377 -7.169365,0.0495 c -6.412275,0.0442 -7.290167,0.007 -8.313311,-0.34733 z m 26.239613,-0.0154 c -1.62523,-0.55543 -2.856324,-1.47086 -3.922635,-2.91685 -1.545506,-2.09579 -1.540005,-2.04428 -1.540005,-14.41757 V 121.6206 h 1.54417 1.54417 l 0.1103,11.1401 c 0.12207,12.32876 0.0633,11.84415 1.59139,13.13262 1.42828,1.20429 1.4448,1.2061 10.9737,1.2061 h 8.82912 l 0.0569,-12.73942 0.0569,-12.7394 h 1.54417 1.54417 v 14.33873 14.33873 l -10.5886,0.0408 c -9.66201,0.0371 -10.68969,0.006 -11.74384,-0.35404 z m 27.38011,0.10435 c -0.0674,-0.17554 -0.0882,-2.43389 -0.0463,-5.01855 0.086,-5.30304 0.23008,-5.88673 1.95935,-7.93757 0.47872,-0.56774 0.8704,-1.10169 0.8704,-1.18654 0,-0.0849 -0.35884,-0.55149 -0.79742,-1.03693 -0.43857,-0.48546 -1.059,-1.44053 -1.37872,-2.1224 -0.57406,-1.22429 -0.58131,-1.30169 -0.58131,-6.20318 v -4.9634 l 1.41379,-0.0666 c 0.98179,-0.0463 1.46944,0.0212 1.59594,0.2206 0.10018,0.15795 0.18586,2.22292 0.19038,4.58879 0.007,3.70206 0.0651,4.42678 0.41608,5.19962 0.48002,1.05688 1.80333,2.21986 2.89139,2.54104 0.48293,0.14258 3.38115,0.20218 7.73868,0.1592 l 6.96659,-0.0687 1.08516,-0.67081 c 0.69381,-0.4289 1.28403,-1.02555 1.63664,-1.65447 0.52718,-0.94029 0.55635,-1.18784 0.66179,-5.61617 l 0.11029,-4.63251 1.48233,-0.0651 c 1.43166,-0.0629 1.48721,-0.0456 1.62494,0.50314 0.0784,0.31252 0.0999,2.52571 0.0476,4.91818 -0.10844,4.96687 -0.31289,5.73271 -2.12389,7.95614 l -0.96515,1.18496 0.88153,0.91337 c 1.10776,1.14777 1.70298,2.3302 2.01057,3.99407 0.27976,1.51339 0.32053,8.69494 0.0518,9.11865 -0.1265,0.19942 -0.61415,0.26684 -1.59595,0.2206 l -1.41378,-0.0666 -0.1103,-4.6325 c -0.10544,-4.42858 -0.13457,-4.67578 -0.66179,-5.6154 -0.30332,-0.54058 -0.98173,-1.28509 -1.50759,-1.65448 l -0.9561,-0.67157 -7.09565,-0.0687 c -7.76473,-0.0751 -8.26058,-0.0167 -9.56048,1.12453 -1.45002,1.27312 -1.60586,1.92132 -1.61134,6.70208 -0.003,2.32563 -0.0651,4.38544 -0.13874,4.57736 -0.18455,0.48092 -2.90758,0.50713 -3.09077,0.0297 z m 43.07898,0.17214 c -0.0809,-0.0809 -0.14706,-5.83845 -0.14706,-12.79457 v -12.6475 l -5.68035,-0.003 c -3.12419,-0.002 -5.80957,-0.0853 -5.96752,-0.18552 -0.19943,-0.12648 -0.26684,-0.61416 -0.22059,-1.59594 l 0.0666,-1.41381 h 13.45634 13.45635 l 0.0676,1.31743 c 0.054,1.05167 -0.0106,1.37429 -0.31791,1.59932 -0.28887,0.21125 -1.78526,0.2819 -5.96855,0.2819 h -5.58304 v 12.44565 c 0,6.84508 -0.0602,12.60264 -0.1339,12.79455 -0.10226,0.26648 -0.45844,0.34892 -1.5074,0.34892 -0.75543,0 -1.43969,-0.0661 -1.52057,-0.14705 z m 18.46949,-0.16629 c -0.0669,-0.17429 -0.082,-4.31951 -0.0337,-9.21164 0.0767,-7.76063 0.13788,-9.04946 0.47978,-10.10804 1.48191,-4.58834 5.58148,-8.29697 9.97932,-9.0277 0.97329,-0.16172 4.06047,-0.22894 8.67991,-0.18901 l 7.16936,0.062 0.0651,1.48231 c 0.061,1.38985 0.0334,1.48958 -0.44119,1.59853 -0.27845,0.0639 -3.93102,0.14139 -8.11682,0.17216 l -7.61055,0.056 -1.48018,0.74285 c -2.65586,1.33291 -5.11072,4.56993 -5.29191,6.97798 l -0.0663,0.88237 11.02979,0.1103 11.02979,0.1103 v 1.54417 1.54418 l -11.08494,0.0572 -11.08494,0.0571 v 5.04807 c 0,4.39967 0.0448,5.06526 0.34894,5.18197 0.19191,0.0737 5.40802,0.13388 11.59136,0.13388 h 11.24241 l -0.0652,1.48902 -0.0652,1.48903 -13.07654,0.0569 c -11.19956,0.0487 -13.09401,0.0114 -13.19814,-0.25997 z m 31.54863,0.008 c -0.0642,-0.16742 -0.0842,-4.41114 -0.0444,-9.43047 l 0.0725,-9.12602 0.58571,-1.51755 c 1.12429,-2.9129 3.72512,-5.84686 6.34232,-7.15469 2.48373,-1.24114 3.83019,-1.40397 10.95715,-1.3251 6.3555,0.0703 6.37589,0.0721 7.61232,0.65184 1.41907,0.66536 2.89415,1.91921 3.63086,3.08623 1.16801,1.85024 1.20465,2.3022 1.14275,14.09896 l -0.0573,10.91096 h -1.43389 -1.43388 l -0.11952,-5.8458 c -0.0657,-3.21518 -0.14019,-5.8706 -0.16544,-5.90093 -0.0253,-0.0304 -5.39579,-0.0551 -11.93451,-0.0551 -10.6373,0 -11.90265,0.0367 -12.02245,0.34892 -0.0737,0.19192 -0.13391,2.87215 -0.13391,5.95608 v 5.60717 h -1.44079 c -1.02155,0 -1.4748,-0.0886 -1.55762,-0.30445 z m 27.17806,-15.48684 c 0.28206,-1.1238 -0.0347,-6.1049 -0.44289,-6.9631 -0.5342,-1.12329 -1.82997,-2.35636 -2.76487,-2.63105 -0.49625,-0.14581 -3.19354,-0.20586 -7.29495,-0.16238 l -6.50757,0.069 -1.49429,0.70783 c -2.96109,1.4026 -5.11562,4.37861 -5.45179,7.53048 -0.0862,0.80735 -0.11134,1.59199 -0.056,1.74365 0.0787,0.21595 2.67811,0.27575 11.98491,0.27575 h 11.88437 l 0.14311,-0.57018 z m 8.16487,15.45181 c -0.22619,-0.58945 -0.14671,-15.74855 0.0913,-17.41849 0.30118,-2.11283 0.75145,-3.38318 1.73481,-4.89432 1.26237,-1.93989 3.15716,-3.68178 5.06923,-4.66019 2.46409,-1.26087 3.46173,-1.47529 6.86464,-1.47529 2.7637,0 3.06816,0.0422 4.22994,0.58689 1.33842,0.62742 3.10878,2.11896 3.61007,3.04151 0.68836,1.26677 0.62839,1.27123 2.21952,-0.16482 2.91283,-2.62894 6.00734,-3.68363 10.34558,-3.52606 2.01923,0.0734 2.63021,0.18263 3.63984,0.65109 1.78664,0.82895 3.17305,2.16961 4.01777,3.88511 l 0.72504,1.47246 v 11.36565 11.36562 h -1.43388 -1.43387 l -0.11109,-10.91949 c -0.0783,-7.69172 -0.188,-11.09156 -0.37124,-11.50162 -0.43177,-0.966 -1.66578,-2.22001 -2.60411,-2.64629 -0.67737,-0.30771 -1.4408,-0.40285 -3.26263,-0.40656 -3.69356,-0.007 -5.73191,0.84663 -7.99474,3.35014 -0.58025,0.64198 -1.31285,1.71319 -1.62793,2.38049 l -0.57292,1.21329 -0.0553,8.82382 c -0.0304,4.85312 -0.10783,9.05167 -0.17213,9.3301 -0.10959,0.47464 -0.20955,0.50221 -1.59925,0.4412 l -1.48229,-0.0651 -0.1103,-11.02979 -0.11031,-11.02979 -0.55564,-0.99268 c -0.3818,-0.6822 -0.9338,-1.22138 -1.7647,-1.72381 l -1.20913,-0.7311 -2.86774,0.0696 c -2.70009,0.0656 -2.95545,0.11123 -4.36814,0.78001 -1.99675,0.94525 -3.90198,2.85033 -4.848,4.84759 l -0.71067,1.5004 -0.11029,9.15473 -0.1103,9.15473 -1.46178,0.0647 c -1.1852,0.0524 -1.48783,-0.003 -1.59933,-0.29379 z m 48.32003,0.19241 c -0.0808,-0.0809 -0.14707,-0.72263 -0.14707,-1.42611 0,-1.03878 0.0801,-1.32194 0.4267,-1.50741 0.27913,-0.1494 4.5842,-0.22837 12.45114,-0.22837 h 12.02444 l 0.34343,-0.49027 c 0.25938,-0.37031 0.34339,-1.07364 0.34339,-2.87483 0,-2.62068 -0.2646,-3.58206 -1.28011,-4.65117 -1.29901,-1.36758 -1.17116,-1.34895 -10.08057,-1.46935 l -8.16204,-0.11029 -1.25189,-0.58688 c -1.75273,-0.82163 -3.13734,-2.17717 -3.98727,-3.90358 -0.64855,-1.31733 -0.71693,-1.64632 -0.71693,-3.45016 0,-1.80365 0.0685,-2.13305 0.71693,-3.451 0.8499,-1.72726 2.23382,-3.08241 3.98727,-3.90439 l 1.25189,-0.58687 h 10.58857 10.58863 l 0.0667,1.28702 c 0.0394,0.75909 -0.0396,1.41515 -0.19245,1.59932 -0.21646,0.26084 -1.89147,0.31229 -10.16606,0.31229 -10.79884,0 -10.82853,0.003 -12.17403,1.28012 -1.9986,1.89688 -1.95096,5.25111 0.0991,6.97964 1.42716,1.20328 1.59674,1.22587 9.20408,1.22587 7.28636,0 8.73542,0.12744 10.35328,0.91064 1.3924,0.67405 3.06901,2.41127 3.74736,3.88291 0.51252,1.11178 0.59798,1.62171 0.6755,4.03028 0.0563,1.74846 -0.009,3.12053 -0.179,3.74973 -0.34564,1.28109 -1.96308,2.94096 -3.19927,3.2832 -0.96836,0.26806 -25.06851,0.3629 -25.33173,0.0997 z"
       style="fill:#3b3b3b;stroke-width:0.22059581" />
  </g>
</svg>
