<?xml version="1.0" encoding="UTF-8" standalone="no"?>
<!-- Created with Inkscape (http://www.inkscape.org/) -->

<svg
   xmlns:dc="http://purl.org/dc/elements/1.1/"
   xmlns:cc="http://creativecommons.org/ns#"
   xmlns:rdf="http://www.w3.org/1999/02/22-rdf-syntax-ns#"
   xmlns:svg="http://www.w3.org/2000/svg"
   xmlns="http://www.w3.org/2000/svg"
   xmlns:sodipodi="http://sodipodi.sourceforge.net/DTD/sodipodi-0.dtd"
   xmlns:inkscape="http://www.inkscape.org/namespaces/inkscape"
   width="264.58334mm"
   height="35.7127mm"
   viewBox="0 0 264.58334 35.7127"
   version="1.1"
   id="svg2741"
   inkscape:version="0.92.4 (5da689c313, 2019-01-14)"
   sodipodi:docname="logo-tit.svg">
  <defs
     id="defs2735" />
  <sodipodi:namedview
     id="base"
     pagecolor="#ffffff"
     bordercolor="#666666"
     borderopacity="1.0"
     inkscape:pageopacity="0.0"
     inkscape:pageshadow="2"
     inkscape:zoom="0.35"
     inkscape:cx="224.28573"
     inkscape:cy="-395.36857"
     inkscape:document-units="mm"
     inkscape:current-layer="layer1"
     showgrid="false"
     fit-margin-top="0"
     fit-margin-left="0"
     fit-margin-right="0"
     fit-margin-bottom="0"
     inkscape:window-width="1920"
     inkscape:window-height="1057"
     inkscape:window-x="-8"
     inkscape:window-y="-8"
     inkscape:window-maximized="1" />
  <metadata
     id="metadata2738">
    <rdf:RDF>
      <cc:Work
         rdf:about="">
        <dc:format>image/svg+xml</dc:format>
        <dc:type
           rdf:resource="http://purl.org/dc/dcmitype/StillImage" />
        <dc:title></dc:title>
      </cc:Work>
    </rdf:RDF>
  </metadata>
  <g
     inkscape:label="Camada 1"
     inkscape:groupmode="layer"
     id="layer1"
     transform="translate(92.982148,-8.5127014)">
    <g
       id="g1573"
       transform="matrix(0.42131086,0,0,0.42131086,-699.94965,119.77937)">
      <path
         sodipodi:nodetypes="cccsccccccssccsccccccccccccsscccccccccsccsccscsscccccsccsssscccccccscscccscssccccccc"
         inkscape:connector-curvature="0"
         id="path1564"
         d="m 1871.5809,-179.96285 c -6.4528,-1.37807 -10.952,-4.98108 -13.7929,-11.04569 -2.1807,-4.65517 -2.676,-7.32158 -2.9654,-15.96469 -0.7214,-21.5429 5.8609,-30.90917 22.9469,-32.65207 14.1965,-1.44815 23.9763,3.44665 27.554,13.79095 2.1705,6.27535 2.4543,23.84249 0.4934,30.54391 -1.5068,5.1497 -7.3759,11.96468 -11.955,13.88155 -3.9513,1.65408 -17.2618,2.51794 -22.281,1.44604 z m 14.5193,-15.54297 c 4.2302,-1.76751 4.83,-3.68938 4.7904,-15.34932 -0.04,-11.66054 -1.0757,-13.24856 -8.6312,-13.22832 -10.3428,0.0277 -11.595,1.59218 -11.595,14.48635 0,9.28578 1.2766,13.32374 4.4214,13.98504 1.1433,0.2404 2.9786,0.62741 4.0786,0.86002 1.1,0.23262 2.3519,0.47514 2.7821,0.53894 0.4302,0.0638 2.2993,-0.51792 4.1537,-1.29271 z m 41.431,15.42737 c -2.5482,-0.45069 -5.7719,-1.56561 -7.1638,-2.47761 -4.9965,-3.27382 -5.5936,-6.33363 -5.7751,-29.59182 -0.092,-11.79708 0.1729,-22.2712 0.5887,-23.27583 0.4159,-1.00464 1.7882,-2.21898 3.0495,-2.69854 3.0097,-1.14429 9.0678,-0.12004 10.6679,1.80366 0.8849,1.06382 1.4165,7.42255 1.766,21.12175 l 0.5,19.59973 3.4735,0.33003 c 1.9104,0.18151 5.3979,0.0414 7.75,-0.31128 l 4.2765,-0.6413 v -18.71622 c 0,-20.97177 0.4055,-22.45191 6.4615,-23.58803 3.4734,-0.65162 7.2668,0.57052 8.7732,2.8265 0.4041,0.60517 0.7416,12.6327 0.75,26.72786 0.014,22.63023 -0.1781,25.78806 -1.6383,26.99995 -1.1144,0.9248 -4.6204,1.40045 -10.75,1.45841 -5.003,0.0473 -11.1214,0.3484 -13.5964,0.6691 -2.475,0.32069 -6.5849,0.21433 -9.1332,-0.23636 z m 58.1256,-0.48151 c -6.2067,-2.00526 -11.2456,-7.585 -13.4749,-14.92127 -2.6835,-8.83113 -1.7243,-25.35689 1.8365,-31.63945 5.5854,-9.85461 13.3314,-13.54106 26.8128,-12.76063 9.8196,0.56845 13.1742,2.59527 13.6504,8.2476 0.2369,2.81279 -0.248,4.36622 -1.9177,6.1436 -2.1026,2.23811 -2.7132,2.34373 -10.3172,1.78477 -10.6113,-0.78003 -13.1299,0.22004 -14.6428,5.81433 -1.6443,6.08047 -0.727,18.2662 1.5657,20.79961 2.1227,2.34554 9.7469,2.71501 17.216,0.83428 4.4276,-1.11488 4.6977,-1.05436 6.9428,1.55577 1.4241,1.65563 2.336,3.99977 2.336,6.00502 0,5.68185 -5.0736,8.35001 -17.2912,9.09327 -5.6775,0.34539 -9.5988,0.0503 -12.7164,-0.9569 z m -157.6698,-0.23337 c -1.1975,-0.23312 -2.645,-0.98731 -3.2165,-1.67598 -0.6563,-0.79072 -1.1023,-11.79161 -1.2103,-29.85369 -0.094,-15.73087 -0.4467,-29.04129 -0.7835,-29.57873 -0.3367,-0.53744 -4.5861,-1.13876 -9.4429,-1.33627 -7.3318,-0.29816 -9.0716,-0.68858 -10.25,-2.30024 -2.1169,-2.89506 -1.8014,-9.1769 0.5806,-11.55887 1.8974,-1.89744 3.3333,-2 28,-2 24.6667,0 26.1026,0.10256 28,2 1.3333,1.33333 2,3.33333 2,6 0,6.60986 -2.259,8 -13,8 h -9 l -0.015,29.25 c -0.01,16.0875 -0.3459,29.74513 -0.75,30.3503 -1.8584,2.78323 -5.6618,3.72552 -10.9121,2.70348 z m 194.9274,-0.79436 -2.25,-1.62283 v -38.00904 c 0,-24.28824 0.3737,-38.70728 1.0352,-39.94329 0.8251,-1.54179 2.1191,-1.93426 6.3775,-1.93426 7.3532,0 7.9797,1.01386 8.5873,13.89761 l 0.5,10.60192 4,-0.49976 c 2.2,-0.27488 7.2416,-0.4328 11.2036,-0.35094 5.6383,0.11649 7.8687,0.62252 10.265,2.32884 5.721,4.0737 6.0314,5.66127 6.0314,30.85023 0,25.86879 0.1336,25.41324 -7.5031,25.57714 -7.3932,0.15867 -7.654,-0.52965 -7.5842,-20.01466 0.033,-9.28971 -0.3013,-18.24038 -0.7434,-19.89038 -0.932,-3.47777 -2.8601,-4.01897 -10.7889,-3.02832 l -5.2628,0.65754 -0.3088,19.40202 c -0.3463,21.76063 -0.5004,22.24029 -7.4212,23.11159 -2.6404,0.33241 -4.6094,-0.0312 -6.1376,-1.13341 z"
         style="fill:#d7dd43;fill-opacity:1" />
      <path
         style="fill:#395aa1;fill-opacity:1"
         d="m 1510.6644,-179.69028 c -13.0572,-4.72285 -17,-11.50998 -17,-29.26364 0,-15.13917 3.3152,-22.87217 12,-27.99092 4.0984,-2.41558 5.437,-2.65227 15,-2.65227 9.902,0 10.74,0.1628 14.7134,2.85866 6.1253,4.15582 8.6154,9.93662 9.1066,21.14134 0.5625,12.83044 0.4594,12.90309 -18.9218,13.32205 -8.7736,0.18965 -14.8982,0.72221 -14.8982,1.29545 0,0.53537 1.1046,2.07795 2.4546,3.42795 2.9869,2.98691 8.7163,3.2574 18.2663,0.86235 5.7952,-1.45338 6.5596,-1.45404 8.7672,-0.008 2.4113,1.57997 4.039,6.55339 3.3545,10.2499 -0.1936,1.04527 -2.5173,2.9309 -5.3426,4.33532 -4.2271,2.10124 -6.6232,2.52245 -15.5,2.7247 -5.775,0.13157 -11.175,-0.005 -12,-0.30333 z m 16.6654,-39.97722 c 1.1079,-2.88715 -2.4427,-4.6449 -8.4336,-4.17513 -3.691,0.28942 -5.6853,0.98346 -6.6613,2.31827 -0.7662,1.04786 -1.2503,2.13516 -1.0757,2.41622 0.1746,0.28107 3.736,0.65693 7.9142,0.83525 6.4461,0.2751 7.6967,0.0639 8.2564,-1.39461 z m 29.5383,38.49337 c -6.9501,-3.52304 -9.613,-7.89754 -10.0478,-16.50608 -0.3085,-6.10887 -0.01,-7.90562 1.8751,-11.25834 3.3704,-5.99676 9.8158,-9.10396 20.44,-9.85372 7.335,-0.51765 8.529,-0.85474 8.529,-2.40806 0,-2.60862 -5.2376,-3.3008 -14.4314,-1.90718 -9.382,1.42215 -11.9277,0.30477 -12.9163,-5.66946 -1.3815,-8.34787 5.5036,-11.62259 23.3477,-11.10469 8.7593,0.25423 11.0932,0.67201 14.0783,2.52009 6.0024,3.7161 6.3541,5.28941 6.7259,30.08405 0.4127,27.52327 0.4722,27.35467 -9.6212,27.23582 -3.6756,-0.0433 -10.508,0.17422 -15.183,0.48333 -7.4306,0.49131 -9.0405,0.28803 -12.7963,-1.61576 z m 19.2145,-14.52997 c 1.0123,-0.38847 1.5818,-1.82851 1.5818,-4 v -3.39301 h -5.9286 c -4.0563,0 -6.4248,0.49627 -7.5,1.57143 -1.8591,1.85909 -1.875,1.99275 -0.5362,4.49431 0.8065,1.50694 2.1139,1.93426 5.9182,1.93426 2.6857,0 5.5948,-0.27314 6.4648,-0.60699 z m 39.6117,15.55715 c -5.1757,-2.19707 -9.3206,-6.35572 -11.8012,-11.84029 -2.1685,-4.79459 -2.5512,-7.13583 -2.633,-16.10987 -0.137,-15.02999 3.5102,-23.79426 12.1329,-29.15521 3.4246,-2.1292 4.9057,-2.34479 16.108,-2.34479 12.2774,0 12.3481,0.0135 14.75,2.80576 2.9468,3.42589 3.0405,6.15345 0.3621,10.54664 l -2.0438,3.35239 -8.7025,-0.63543 c -10.2438,-0.74798 -12.9262,0.23678 -14.7925,5.43064 -2.4507,6.81983 -1.2466,18.02041 2.3207,21.58769 1.6647,1.66479 5.9225,1.61147 17.564,-0.21996 4.6454,-0.73079 7.2182,1.22148 8.1491,6.18362 1.4366,7.65784 -3.535,10.65529 -18.4437,11.12005 -5.8907,0.18364 -11.5843,-0.13297 -12.9701,-0.72124 z m -151.3749,-1.7789 c -1.4617,-1.61517 -1.655,-5.29391 -1.655,-31.5 v -29.67126 h -9.345 c -11.1292,0 -12.655,-0.99555 -12.655,-8.25731 0,-7.80616 -0.3,-7.72099 27.8214,-7.89821 13.5732,-0.0855 25.8036,-0.0518 27.1786,0.075 4.161,0.38362 6,2.86031 6,8.08057 0,6.99066 -1.6186,8 -12.8287,8 l -9.1713,-5e-5 v 29.27749 c 0,34.31345 0.1472,33.72251 -8.4017,33.72251 -3.8532,0 -5.7374,-0.49626 -6.9433,-1.82874 z m 188.3833,-0.84969 c -2.0694,-2.63083 -2.1018,-3.34333 -1.8226,-40.08919 l 0.2843,-37.41076 2.3608,-1.91081 c 3.193,-2.5844 9.512,-2.53797 12.1392,0.0892 1.7399,1.73989 2,3.33333 2,12.25193 v 10.25193 l 11.75,-0.002 c 10.5656,-0.002 12.0661,0.22357 14.8863,2.23517 5.6068,3.9994 6.3637,7.75348 6.3637,31.56069 0,25.39626 -0.1012,25.70227 -8.5,25.70227 -8.3099,0 -8.5,-0.53154 -8.5,-23.76457 v -19.31956 l -7.75,0.29207 -7.75,0.29206 -0.2723,19.44588 c -0.3163,22.59492 -0.4819,23.05412 -8.3101,23.05412 -3.9843,0 -5.1204,-0.44232 -6.8793,-2.67843 z"
         id="path1566"
         inkscape:connector-curvature="0"
         sodipodi:nodetypes="cscsccsscsccscccccccccccccsscssscsccscsccscccscscccsccccsccscssccsccssccccccscccsssccccsc" />
      <path
         style="fill:#8dc749;fill-opacity:1"
         d="m 1723.3194,-181.92585 c -1.4507,-1.60302 -1.655,-5.03992 -1.655,-27.84501 0,-29.72741 -0.1118,-29.32625 8.1738,-29.32625 7.8718,0 7.8262,-0.17304 7.8262,29.67375 0,23.93415 -0.1464,26.14873 -1.8287,27.67126 -2.5739,2.3293 -10.3488,2.22137 -12.5163,-0.17375 z m 27.095,0.74864 c -1.5978,-0.93061 -1.75,-3.35021 -1.75,-27.8146 0,-31.89361 -0.7862,-29.92095 12.0222,-30.16354 27.2246,-0.51564 26.266,-0.57349 30.1101,1.81708 5.9195,3.6811 6.3677,5.90355 6.3677,31.57111 0,25.83717 0.047,25.68487 -7.9411,25.65474 -7.8815,-0.0297 -8.4089,-1.51593 -8.51,-23.97959 -0.045,-10.10474 -0.3393,-18.62714 -0.6528,-18.93868 -1.1077,-1.10044 -13.7776,-0.0668 -14.5752,1.18907 -0.4346,0.68448 -0.7972,9.61227 -0.8056,19.83952 -0.014,16.73297 -0.1984,18.76074 -1.844,20.25 -2.0585,1.86284 -9.61,2.21235 -12.4213,0.57489 z m -24.2847,-59.87142 c -2.7383,-1.10995 -4.3649,-3.21172 -5.4714,-7.06968 -2.0218,-7.04978 3.86,-12.97919 11.4607,-11.5533 4.4352,0.83205 6.5454,3.85418 6.5454,9.37393 0,7.32878 -6.124,11.84755 -12.5347,9.24905 z"
         id="path1568"
         inkscape:connector-curvature="0"
         sodipodi:nodetypes="cssscccsscsccccccccccsc" />
    </g>
  </g>
</svg>
